<?xml version="1.0" standalone="no"?>
<!DOCTYPE svg PUBLIC "-//W3C//DTD SVG 20010904//EN"
 "http://www.w3.org/TR/2001/REC-SVG-20010904/DTD/svg10.dtd">
<svg version="1.0" xmlns="http://www.w3.org/2000/svg"
 width="300.000000pt" height="247.000000pt" viewBox="0 0 300.000000 247.000000"
 preserveAspectRatio="xMidYMid meet">
<metadata>
Created by potrace 1.10, written by Peter Selinger 2001-2011
</metadata>
<g transform="translate(0.000000,247.000000) scale(0.100000,-0.100000)"
fill="#000000" stroke="none">
<path d="M1546 2254 c-150 -36 -328 -178 -394 -314 -40 -81 -61 -207 -46 -279
10 -46 9 -50 -21 -84 -16 -19 -40 -38 -52 -42 -12 -3 -32 -19 -43 -35 -16 -23
-34 -31 -97 -45 -192 -42 -508 -168 -582 -230 -32 -28 -61 -79 -61 -109 0 -21
49 -76 79 -88 88 -36 182 -50 366 -55 201 -6 269 2 508 59 l87 21 79 -41 c43
-23 120 -56 172 -74 85 -29 105 -32 214 -32 82 0 145 6 198 18 43 10 81 15 85
12 3 -4 5 -34 4 -68 -2 -42 -9 -68 -22 -86 -24 -30 -26 -95 -6 -134 8 -16 15
-36 15 -45 -1 -10 2 -27 5 -38 9 -29 -26 -81 -61 -89 -43 -11 -73 -34 -73 -56
0 -13 17 -32 44 -51 l44 -32 -14 -41 c-32 -88 16 -115 96 -53 l44 33 49 -33
c53 -36 67 -39 85 -21 15 15 15 82 0 124 -11 30 -9 33 25 64 61 53 44 79 -54
85 -34 3 -64 7 -68 11 -12 12 -4 101 12 142 20 50 25 126 9 144 -11 14 -5 156
8 177 3 6 60 25 126 42 182 46 360 108 404 140 51 37 53 68 8 103 -21 15 -88
40 -178 65 -80 22 -199 59 -265 82 -129 44 -241 69 -311 69 -42 0 -44 1 -44
30 0 29 -32 70 -55 70 -8 0 -14 27 -18 70 -3 38 -10 77 -15 87 -8 14 -2 25 29
55 21 21 41 50 45 65 15 63 53 78 110 42 33 -20 33 -21 19 -49 -20 -39 -20
-99 1 -107 9 -3 31 2 50 11 50 23 99 21 118 -6 37 -53 6 -108 -75 -131 -57
-17 -61 -38 -14 -83 32 -30 43 -34 89 -34 30 0 69 6 87 14 123 52 168 244 82
346 -48 57 -141 88 -215 71 l-37 -9 -6 42 c-25 149 -135 245 -337 295 -99 24
-149 25 -232 5z m249 -29 c180 -47 290 -151 297 -279 4 -62 -19 -82 -55 -48
-29 27 -78 38 -106 22 -12 -6 -32 -34 -45 -63 -13 -29 -32 -60 -44 -70 -21
-19 -42 -16 -42 6 -1 20 -39 59 -50 52 -8 -5 -5 -14 9 -29 33 -35 61 -111 68
-181 5 -55 4 -65 -10 -65 -9 0 -62 -24 -119 -54 -99 -52 -179 -76 -254 -76
-27 0 -34 5 -43 32 -19 54 -49 78 -97 78 -33 0 -51 -7 -76 -28 l-33 -27 -53
26 -52 27 25 30 c32 39 95 68 163 77 28 4 52 11 52 17 0 16 -109 -1 -153 -24
-22 -11 -42 -17 -45 -13 -15 14 -13 134 3 195 25 96 61 156 145 240 155 156
321 206 515 155z m467 -330 c107 -17 170 -162 118 -270 -39 -81 -88 -115 -167
-115 -44 0 -58 5 -84 28 -37 33 -32 52 13 52 44 0 98 56 98 103 0 54 -37 92
-89 91 -22 -1 -52 -9 -65 -18 -37 -24 -46 -20 -46 18 0 36 28 79 63 98 25 13
84 25 107 22 8 -2 32 -6 52 -9z m-381 -355 c13 -7 19 -21 19 -44 l0 -34 -77
-18 c-43 -10 -88 -17 -100 -16 -37 4 -26 -13 25 -37 116 -56 273 -200 357
-326 l40 -60 -2 -99 c-3 -104 -8 -116 -50 -116 -22 0 -23 3 -23 98 0 92 -2
101 -29 143 -46 70 -175 203 -233 242 -29 19 -83 51 -119 71 l-66 36 -59 -15
c-32 -8 -86 -15 -120 -15 l-61 0 11 35 c10 33 13 35 58 35 80 0 149 21 256 76
103 54 137 63 173 44z m-520 -36 c18 -19 24 -36 23 -69 -2 -112 -114 -176
-185 -106 -35 35 -36 60 -8 119 39 79 122 107 170 56z m-225 0 c19 -9 37 -20
39 -24 4 -7 -9 -50 -21 -68 -1 -2 -13 2 -26 9 -12 7 -49 20 -81 29 l-58 16 27
27 c31 31 69 35 120 11z m-101 -73 c89 -27 115 -42 115 -64 0 -10 15 -34 34
-53 29 -29 41 -34 79 -34 34 0 53 6 75 25 25 21 40 25 98 25 37 0 95 6 127 12
58 12 61 12 116 -18 31 -17 56 -35 55 -40 0 -5 -20 -19 -44 -31 -34 -18 -61
-23 -116 -23 -40 0 -84 4 -98 10 -16 6 -27 6 -31 0 -11 -17 44 -30 126 -30 80
0 136 15 170 46 12 11 25 13 40 9 30 -10 223 -205 212 -216 -15 -14 -127 -29
-225 -29 -153 0 -234 23 -463 130 -113 52 -358 134 -451 150 -72 13 -319 10
-359 -4 -19 -7 -19 -7 -1 4 39 26 425 148 471 149 6 1 37 -8 70 -18z m1047 5
c40 -8 134 -35 208 -59 74 -25 172 -55 218 -67 70 -19 81 -24 70 -37 -27 -34
-169 -105 -263 -134 -55 -16 -120 -37 -145 -45 -45 -15 -45 -15 -65 13 -68 94
-181 201 -279 265 -64 41 -65 40 39 61 92 19 128 20 217 3z m-1210 -161 c116
-24 280 -81 460 -162 184 -81 272 -107 393 -117 73 -6 186 6 272 30 17 5 25
-1 37 -24 l16 -31 -78 -18 c-56 -13 -115 -18 -217 -17 -165 0 -194 9 -405 114
-209 104 -464 177 -655 187 -111 6 -250 -13 -332 -46 -27 -10 -57 -22 -68 -26
-16 -6 -13 -1 10 24 39 42 117 79 190 90 100 14 297 12 377 -4z m1836 -41 c69
-45 -27 -95 -353 -184 -103 -28 -188 -50 -190 -48 -8 10 -25 48 -25 57 0 6 7
11 16 11 9 0 64 14 123 31 118 34 239 93 298 144 37 32 39 33 73 18 19 -7 45
-21 58 -29z m-1868 -39 c153 -26 434 -114 417 -131 -5 -6 -53 -17 -227 -55
-88 -20 -134 -23 -285 -23 -295 -1 -475 49 -475 130 0 20 11 27 83 49 73 22
140 36 232 49 44 5 157 -3 255 -19z m1321 -427 c10 -15 -10 -100 -28 -120 -40
-44 -113 -7 -113 58 0 59 11 69 77 70 32 0 61 -4 64 -8z m-21 -157 c-1 -26
-60 -44 -88 -28 -28 18 -11 33 38 33 28 0 50 -2 50 -5z m-20 -78 c17 -49 27
-58 56 -56 56 4 114 -8 114 -22 0 -8 -18 -27 -40 -41 -45 -30 -46 -31 -25 -70
20 -38 20 -114 1 -114 -8 0 -35 16 -60 35 -54 41 -57 41 -81 15 -10 -12 -34
-30 -53 -42 -49 -30 -62 -13 -38 54 20 58 24 49 -49 101 -39 28 -31 44 29 61
50 15 56 20 73 61 22 55 57 63 73 18z"/>
<path d="M1650 2153 c-55 -86 -152 -170 -284 -241 -64 -35 -132 -66 -151 -69
-20 -3 -38 -9 -40 -13 -14 -23 105 21 204 74 130 70 228 154 280 240 44 74 36
81 -9 9z"/>
<path d="M1317 1467 c7 -44 -18 -92 -60 -114 -26 -14 -29 -18 -13 -21 47 -10
107 82 92 141 -9 39 -26 33 -19 -6z"/>
<path d="M838 1374 c-53 -27 -58 -34 -27 -34 11 0 17 5 14 10 -3 6 -2 10 4 10
6 0 25 9 43 20 46 28 23 24 -34 -6z"/>
</g>
</svg>
